M48
; DRILL file {KiCad 6.0.10-1.fc36} date Mon 09 Jan 2023 12:43:48 PM EST
; FORMAT={-:-/ absolute / inch / decimal}
; #@! TF.CreationDate,2023-01-09T12:43:48-05:00
; #@! TF.GenerationSoftware,Kicad,Pcbnew,6.0.10-1.fc36
; #@! TF.FileFunction,MixedPlating,1,2
FMAT,2
INCH
; #@! TA.AperFunction,Plated,PTH,ComponentDrill
T1C0.0315
; #@! TA.AperFunction,Plated,PTH,ComponentDrill
T2C0.0394
; #@! TA.AperFunction,Plated,PTH,ComponentDrill
T3C0.0402
; #@! TA.AperFunction,Plated,PTH,ComponentDrill
T4C0.0433
; #@! TA.AperFunction,Plated,PTH,ComponentDrill
T5C0.1260
; #@! TA.AperFunction,NonPlated,NPTH,ComponentDrill
T6C0.0591
; #@! TA.AperFunction,NonPlated,NPTH,ComponentDrill
T7C0.0709
; #@! TA.AperFunction,NonPlated,NPTH,ComponentDrill
T8C0.1693
%
G90
G05
T1
X5.0398Y-2.618
X5.0398Y-2.738
X5.0398Y-2.908
X5.0398Y-3.028
X5.0398Y-3.148
X5.0398Y-3.398
X5.0398Y-3.518
X5.0398Y-3.638
X5.0398Y-3.758
X5.0398Y-3.878
X5.0398Y-4.018
X5.0398Y-4.138
X5.0398Y-4.258
X5.0398Y-4.418
X5.0398Y-4.538
X5.3398Y-2.618
X5.3398Y-2.738
X5.3398Y-2.908
X5.3398Y-3.028
X5.3398Y-3.148
X5.3398Y-3.398
X5.3398Y-3.518
X5.3398Y-3.638
X5.3398Y-3.758
X5.3398Y-3.878
X5.3398Y-4.018
X5.3398Y-4.138
X5.3398Y-4.258
X5.3398Y-4.418
X5.3398Y-4.538
X6.4598Y-3.678
X6.4598Y-3.978
X6.4598Y-4.418
X6.4598Y-4.538
X6.516Y-2.6491
X6.516Y-2.7279
X6.516Y-3.3227
X6.516Y-3.4014
X6.5798Y-3.678
X6.5798Y-3.978
X6.7598Y-4.418
X6.7598Y-4.538
T2
X6.8475Y-3.5578
X6.8475Y-3.6578
X6.8475Y-3.8678
X6.8475Y-3.9678
T3
X5.5398Y-2.628
X5.5398Y-2.728
X5.5398Y-2.828
X5.5398Y-2.928
X5.5398Y-3.028
X5.5398Y-3.128
X5.5398Y-3.228
X5.5398Y-3.328
X5.5398Y-3.428
X5.5398Y-3.528
X5.5398Y-3.628
X5.5398Y-3.728
X5.5398Y-3.828
X5.5398Y-3.928
X5.5398Y-4.028
X5.5398Y-4.128
X5.5398Y-4.228
X5.5398Y-4.328
X5.5398Y-4.428
X5.5398Y-4.528
X5.7898Y-4.5189
X5.8898Y-4.5189
X5.9898Y-4.5189
X6.2398Y-2.628
X6.2398Y-2.728
X6.2398Y-2.828
X6.2398Y-2.928
X6.2398Y-3.028
X6.2398Y-3.128
X6.2398Y-3.228
X6.2398Y-3.328
X6.2398Y-3.428
X6.2398Y-3.528
X6.2398Y-3.628
X6.2398Y-3.728
X6.2398Y-3.828
X6.2398Y-3.928
X6.2398Y-4.028
X6.2398Y-4.128
X6.2398Y-4.228
X6.2398Y-4.328
X6.2398Y-4.428
X6.2398Y-4.528
T4
X5.8898Y-4.78
X5.8898Y-4.98
X5.9349Y-4.88
X5.98Y-4.78
X5.98Y-4.98
X6.0251Y-4.88
X6.0702Y-4.78
X6.0702Y-4.98
X6.1152Y-4.88
X6.1603Y-4.78
X6.1603Y-4.98
X6.2054Y-4.88
X6.2505Y-4.78
X6.2505Y-4.98
X6.2956Y-4.88
X6.5132Y-2.9303
X6.5132Y-3.0303
X6.5132Y-3.1303
T5
X5.5881Y-4.88
X6.5719Y-4.88
T6
X5.7943Y-2.7524
X5.9852Y-2.7524
T7
X5.7825Y-2.6331
X5.997Y-2.6331
T8
X5.12Y-5.16
X7.08Y-2.72
X7.08Y-5.16
T2
G00X6.7098Y-3.1271
M15
G01X6.7098Y-3.0483
M16
G05
G00X6.8672Y-2.9027
M15
G01X6.7885Y-2.9027
M16
G05
G00X6.946Y-3.1271
M15
G01X6.946Y-3.0483
M16
G05
T0
M30
