G04 #@! TF.GenerationSoftware,KiCad,Pcbnew,6.0.10-1.fc36*
G04 #@! TF.CreationDate,2023-01-09T12:43:08-05:00*
G04 #@! TF.ProjectId,my_vga_board,6d795f76-6761-45f6-926f-6172642e6b69,v01*
G04 #@! TF.SameCoordinates,Original*
G04 #@! TF.FileFunction,Legend,Top*
G04 #@! TF.FilePolarity,Positive*
%FSLAX46Y46*%
G04 Gerber Fmt 4.6, Leading zero omitted, Abs format (unit mm)*
G04 Created by KiCad (PCBNEW 6.0.10-1.fc36) date 2023-01-09 12:43:08*
%MOMM*%
%LPD*%
G01*
G04 APERTURE LIST*
%ADD10C,0.150000*%
%ADD11C,0.120000*%
G04 APERTURE END LIST*
D10*
X180165523Y-89304761D02*
X180308380Y-89352380D01*
X180546476Y-89352380D01*
X180641714Y-89304761D01*
X180689333Y-89257142D01*
X180736952Y-89161904D01*
X180736952Y-89066666D01*
X180689333Y-88971428D01*
X180641714Y-88923809D01*
X180546476Y-88876190D01*
X180356000Y-88828571D01*
X180260761Y-88780952D01*
X180213142Y-88733333D01*
X180165523Y-88638095D01*
X180165523Y-88542857D01*
X180213142Y-88447619D01*
X180260761Y-88400000D01*
X180356000Y-88352380D01*
X180594095Y-88352380D01*
X180736952Y-88400000D01*
X181736952Y-89257142D02*
X181689333Y-89304761D01*
X181546476Y-89352380D01*
X181451238Y-89352380D01*
X181308380Y-89304761D01*
X181213142Y-89209523D01*
X181165523Y-89114285D01*
X181117904Y-88923809D01*
X181117904Y-88780952D01*
X181165523Y-88590476D01*
X181213142Y-88495238D01*
X181308380Y-88400000D01*
X181451238Y-88352380D01*
X181546476Y-88352380D01*
X181689333Y-88400000D01*
X181736952Y-88447619D01*
X182641714Y-89352380D02*
X182165523Y-89352380D01*
X182165523Y-88352380D01*
X178372761Y-123410023D02*
X178420380Y-123267166D01*
X178420380Y-123029071D01*
X178372761Y-122933833D01*
X178325142Y-122886214D01*
X178229904Y-122838595D01*
X178134666Y-122838595D01*
X178039428Y-122886214D01*
X177991809Y-122933833D01*
X177944190Y-123029071D01*
X177896571Y-123219547D01*
X177848952Y-123314785D01*
X177801333Y-123362404D01*
X177706095Y-123410023D01*
X177610857Y-123410023D01*
X177515619Y-123362404D01*
X177468000Y-123314785D01*
X177420380Y-123219547D01*
X177420380Y-122981452D01*
X177468000Y-122838595D01*
X178420380Y-122410023D02*
X177753714Y-122410023D01*
X177420380Y-122410023D02*
X177468000Y-122457642D01*
X177515619Y-122410023D01*
X177468000Y-122362404D01*
X177420380Y-122410023D01*
X177515619Y-122410023D01*
X178420380Y-121933833D02*
X177753714Y-121933833D01*
X177848952Y-121933833D02*
X177801333Y-121886214D01*
X177753714Y-121790976D01*
X177753714Y-121648119D01*
X177801333Y-121552880D01*
X177896571Y-121505261D01*
X178420380Y-121505261D01*
X177896571Y-121505261D02*
X177801333Y-121457642D01*
X177753714Y-121362404D01*
X177753714Y-121219547D01*
X177801333Y-121124309D01*
X177896571Y-121076690D01*
X178420380Y-121076690D01*
X177753714Y-120600500D02*
X178753714Y-120600500D01*
X177801333Y-120600500D02*
X177753714Y-120505261D01*
X177753714Y-120314785D01*
X177801333Y-120219547D01*
X177848952Y-120171928D01*
X177944190Y-120124309D01*
X178229904Y-120124309D01*
X178325142Y-120171928D01*
X178372761Y-120219547D01*
X178420380Y-120314785D01*
X178420380Y-120505261D01*
X178372761Y-120600500D01*
X178420380Y-119552880D02*
X178372761Y-119648119D01*
X178277523Y-119695738D01*
X177420380Y-119695738D01*
X178420380Y-119171928D02*
X177753714Y-119171928D01*
X177420380Y-119171928D02*
X177468000Y-119219547D01*
X177515619Y-119171928D01*
X177468000Y-119124309D01*
X177420380Y-119171928D01*
X177515619Y-119171928D01*
X177753714Y-118838595D02*
X177753714Y-118457642D01*
X178420380Y-118695738D02*
X177563238Y-118695738D01*
X177468000Y-118648119D01*
X177420380Y-118552880D01*
X177420380Y-118457642D01*
X178420380Y-118124309D02*
X177753714Y-118124309D01*
X177420380Y-118124309D02*
X177468000Y-118171928D01*
X177515619Y-118124309D01*
X177468000Y-118076690D01*
X177420380Y-118124309D01*
X177515619Y-118124309D01*
X178372761Y-117267166D02*
X178420380Y-117362404D01*
X178420380Y-117552880D01*
X178372761Y-117648119D01*
X178277523Y-117695738D01*
X177896571Y-117695738D01*
X177801333Y-117648119D01*
X177753714Y-117552880D01*
X177753714Y-117362404D01*
X177801333Y-117267166D01*
X177896571Y-117219547D01*
X177991809Y-117219547D01*
X178087047Y-117695738D01*
X178420380Y-116362404D02*
X177420380Y-116362404D01*
X178372761Y-116362404D02*
X178420380Y-116457642D01*
X178420380Y-116648119D01*
X178372761Y-116743357D01*
X178325142Y-116790976D01*
X178229904Y-116838595D01*
X177944190Y-116838595D01*
X177848952Y-116790976D01*
X177801333Y-116743357D01*
X177753714Y-116648119D01*
X177753714Y-116457642D01*
X177801333Y-116362404D01*
X178420380Y-115124309D02*
X177420380Y-115124309D01*
X177420380Y-114743357D01*
X177468000Y-114648119D01*
X177515619Y-114600500D01*
X177610857Y-114552880D01*
X177753714Y-114552880D01*
X177848952Y-114600500D01*
X177896571Y-114648119D01*
X177944190Y-114743357D01*
X177944190Y-115124309D01*
X178420380Y-114124309D02*
X177753714Y-114124309D01*
X177420380Y-114124309D02*
X177468000Y-114171928D01*
X177515619Y-114124309D01*
X177468000Y-114076690D01*
X177420380Y-114124309D01*
X177515619Y-114124309D01*
X178372761Y-113219547D02*
X178420380Y-113314785D01*
X178420380Y-113505261D01*
X178372761Y-113600500D01*
X178325142Y-113648119D01*
X178229904Y-113695738D01*
X177944190Y-113695738D01*
X177848952Y-113648119D01*
X177801333Y-113600500D01*
X177753714Y-113505261D01*
X177753714Y-113314785D01*
X177801333Y-113219547D01*
X178420380Y-112648119D02*
X178372761Y-112743357D01*
X178325142Y-112790976D01*
X178229904Y-112838595D01*
X177944190Y-112838595D01*
X177848952Y-112790976D01*
X177801333Y-112743357D01*
X177753714Y-112648119D01*
X177753714Y-112505261D01*
X177801333Y-112410023D01*
X177848952Y-112362404D01*
X177944190Y-112314785D01*
X178229904Y-112314785D01*
X178325142Y-112362404D01*
X178372761Y-112410023D01*
X178420380Y-112505261D01*
X178420380Y-112648119D01*
X177420380Y-111267166D02*
X178420380Y-110933833D01*
X177420380Y-110600500D01*
X177468000Y-109743357D02*
X177420380Y-109838595D01*
X177420380Y-109981452D01*
X177468000Y-110124309D01*
X177563238Y-110219547D01*
X177658476Y-110267166D01*
X177848952Y-110314785D01*
X177991809Y-110314785D01*
X178182285Y-110267166D01*
X178277523Y-110219547D01*
X178372761Y-110124309D01*
X178420380Y-109981452D01*
X178420380Y-109886214D01*
X178372761Y-109743357D01*
X178325142Y-109695738D01*
X177991809Y-109695738D01*
X177991809Y-109886214D01*
X178134666Y-109314785D02*
X178134666Y-108838595D01*
X178420380Y-109410023D02*
X177420380Y-109076690D01*
X178420380Y-108743357D01*
X179363714Y-123457642D02*
X180030380Y-123219547D01*
X179363714Y-122981452D01*
X180030380Y-122076690D02*
X180030380Y-122648119D01*
X180030380Y-122362404D02*
X179030380Y-122362404D01*
X179173238Y-122457642D01*
X179268476Y-122552880D01*
X179316095Y-122648119D01*
X181640380Y-123362404D02*
X180640380Y-123362404D01*
X181021333Y-123362404D02*
X180973714Y-123267166D01*
X180973714Y-123076690D01*
X181021333Y-122981452D01*
X181068952Y-122933833D01*
X181164190Y-122886214D01*
X181449904Y-122886214D01*
X181545142Y-122933833D01*
X181592761Y-122981452D01*
X181640380Y-123076690D01*
X181640380Y-123267166D01*
X181592761Y-123362404D01*
X180973714Y-122552880D02*
X181640380Y-122314785D01*
X180973714Y-122076690D02*
X181640380Y-122314785D01*
X181878476Y-122410023D01*
X181926095Y-122457642D01*
X181973714Y-122552880D01*
X181640380Y-120933833D02*
X180640380Y-120933833D01*
X181021333Y-120933833D02*
X180973714Y-120838595D01*
X180973714Y-120648119D01*
X181021333Y-120552880D01*
X181068952Y-120505261D01*
X181164190Y-120457642D01*
X181449904Y-120457642D01*
X181545142Y-120505261D01*
X181592761Y-120552880D01*
X181640380Y-120648119D01*
X181640380Y-120838595D01*
X181592761Y-120933833D01*
X180973714Y-119600500D02*
X181640380Y-119600500D01*
X180973714Y-120029071D02*
X181497523Y-120029071D01*
X181592761Y-119981452D01*
X181640380Y-119886214D01*
X181640380Y-119743357D01*
X181592761Y-119648119D01*
X181545142Y-119600500D01*
X180973714Y-119124309D02*
X181640380Y-119124309D01*
X181068952Y-119124309D02*
X181021333Y-119076690D01*
X180973714Y-118981452D01*
X180973714Y-118838595D01*
X181021333Y-118743357D01*
X181116571Y-118695738D01*
X181640380Y-118695738D01*
X180973714Y-118219547D02*
X181640380Y-118219547D01*
X181068952Y-118219547D02*
X181021333Y-118171928D01*
X180973714Y-118076690D01*
X180973714Y-117933833D01*
X181021333Y-117838595D01*
X181116571Y-117790976D01*
X181640380Y-117790976D01*
X180973714Y-117410023D02*
X181640380Y-117171928D01*
X180973714Y-116933833D02*
X181640380Y-117171928D01*
X181878476Y-117267166D01*
X181926095Y-117314785D01*
X181973714Y-117410023D01*
X181592761Y-116600500D02*
X181640380Y-116505261D01*
X181640380Y-116314785D01*
X181592761Y-116219547D01*
X181497523Y-116171928D01*
X181449904Y-116171928D01*
X181354666Y-116219547D01*
X181307047Y-116314785D01*
X181307047Y-116457642D01*
X181259428Y-116552880D01*
X181164190Y-116600500D01*
X181116571Y-116600500D01*
X181021333Y-116552880D01*
X180973714Y-116457642D01*
X180973714Y-116314785D01*
X181021333Y-116219547D01*
X181640380Y-115314785D02*
X181116571Y-115314785D01*
X181021333Y-115362404D01*
X180973714Y-115457642D01*
X180973714Y-115648119D01*
X181021333Y-115743357D01*
X181592761Y-115314785D02*
X181640380Y-115410023D01*
X181640380Y-115648119D01*
X181592761Y-115743357D01*
X181497523Y-115790976D01*
X181402285Y-115790976D01*
X181307047Y-115743357D01*
X181259428Y-115648119D01*
X181259428Y-115410023D01*
X181211809Y-115314785D01*
X181640380Y-114838595D02*
X180973714Y-114838595D01*
X181068952Y-114838595D02*
X181021333Y-114790976D01*
X180973714Y-114695738D01*
X180973714Y-114552880D01*
X181021333Y-114457642D01*
X181116571Y-114410023D01*
X181640380Y-114410023D01*
X181116571Y-114410023D02*
X181021333Y-114362404D01*
X180973714Y-114267166D01*
X180973714Y-114124309D01*
X181021333Y-114029071D01*
X181116571Y-113981452D01*
X181640380Y-113981452D01*
X180973714Y-113076690D02*
X181640380Y-113076690D01*
X180973714Y-113505261D02*
X181497523Y-113505261D01*
X181592761Y-113457642D01*
X181640380Y-113362404D01*
X181640380Y-113219547D01*
X181592761Y-113124309D01*
X181545142Y-113076690D01*
X181640380Y-112600500D02*
X180973714Y-112600500D01*
X181164190Y-112600500D02*
X181068952Y-112552880D01*
X181021333Y-112505261D01*
X180973714Y-112410023D01*
X180973714Y-112314785D01*
X181640380Y-111552880D02*
X181116571Y-111552880D01*
X181021333Y-111600500D01*
X180973714Y-111695738D01*
X180973714Y-111886214D01*
X181021333Y-111981452D01*
X181592761Y-111552880D02*
X181640380Y-111648119D01*
X181640380Y-111886214D01*
X181592761Y-111981452D01*
X181497523Y-112029071D01*
X181402285Y-112029071D01*
X181307047Y-111981452D01*
X181259428Y-111886214D01*
X181259428Y-111648119D01*
X181211809Y-111552880D01*
X181640380Y-111076690D02*
X180973714Y-111076690D01*
X180640380Y-111076690D02*
X180688000Y-111124309D01*
X180735619Y-111076690D01*
X180688000Y-111029071D01*
X180640380Y-111076690D01*
X180735619Y-111076690D01*
X180165523Y-97178761D02*
X180308380Y-97226380D01*
X180546476Y-97226380D01*
X180641714Y-97178761D01*
X180689333Y-97131142D01*
X180736952Y-97035904D01*
X180736952Y-96940666D01*
X180689333Y-96845428D01*
X180641714Y-96797809D01*
X180546476Y-96750190D01*
X180356000Y-96702571D01*
X180260761Y-96654952D01*
X180213142Y-96607333D01*
X180165523Y-96512095D01*
X180165523Y-96416857D01*
X180213142Y-96321619D01*
X180260761Y-96274000D01*
X180356000Y-96226380D01*
X180594095Y-96226380D01*
X180736952Y-96274000D01*
X181736952Y-97131142D02*
X181689333Y-97178761D01*
X181546476Y-97226380D01*
X181451238Y-97226380D01*
X181308380Y-97178761D01*
X181213142Y-97083523D01*
X181165523Y-96988285D01*
X181117904Y-96797809D01*
X181117904Y-96654952D01*
X181165523Y-96464476D01*
X181213142Y-96369238D01*
X181308380Y-96274000D01*
X181451238Y-96226380D01*
X181546476Y-96226380D01*
X181689333Y-96274000D01*
X181736952Y-96321619D01*
X182641714Y-97226380D02*
X182165523Y-97226380D01*
X182165523Y-96226380D01*
X131700952Y-112668380D02*
X131129523Y-112668380D01*
X131415238Y-112668380D02*
X131415238Y-111668380D01*
X131320000Y-111811238D01*
X131224761Y-111906476D01*
X131129523Y-111954095D01*
X132129523Y-112668380D02*
X132129523Y-111668380D01*
X132224761Y-112287428D02*
X132510476Y-112668380D01*
X132510476Y-112001714D02*
X132129523Y-112382666D01*
X130129523Y-101936952D02*
X130034285Y-101889333D01*
X129986666Y-101841714D01*
X129939047Y-101746476D01*
X129939047Y-101698857D01*
X129986666Y-101603619D01*
X130034285Y-101556000D01*
X130129523Y-101508380D01*
X130320000Y-101508380D01*
X130415238Y-101556000D01*
X130462857Y-101603619D01*
X130510476Y-101698857D01*
X130510476Y-101746476D01*
X130462857Y-101841714D01*
X130415238Y-101889333D01*
X130320000Y-101936952D01*
X130129523Y-101936952D01*
X130034285Y-101984571D01*
X129986666Y-102032190D01*
X129939047Y-102127428D01*
X129939047Y-102317904D01*
X129986666Y-102413142D01*
X130034285Y-102460761D01*
X130129523Y-102508380D01*
X130320000Y-102508380D01*
X130415238Y-102460761D01*
X130462857Y-102413142D01*
X130510476Y-102317904D01*
X130510476Y-102127428D01*
X130462857Y-102032190D01*
X130415238Y-101984571D01*
X130320000Y-101936952D01*
X130939047Y-102413142D02*
X130986666Y-102460761D01*
X130939047Y-102508380D01*
X130891428Y-102460761D01*
X130939047Y-102413142D01*
X130939047Y-102508380D01*
X131605714Y-101508380D02*
X131700952Y-101508380D01*
X131796190Y-101556000D01*
X131843809Y-101603619D01*
X131891428Y-101698857D01*
X131939047Y-101889333D01*
X131939047Y-102127428D01*
X131891428Y-102317904D01*
X131843809Y-102413142D01*
X131796190Y-102460761D01*
X131700952Y-102508380D01*
X131605714Y-102508380D01*
X131510476Y-102460761D01*
X131462857Y-102413142D01*
X131415238Y-102317904D01*
X131367619Y-102127428D01*
X131367619Y-101889333D01*
X131415238Y-101698857D01*
X131462857Y-101603619D01*
X131510476Y-101556000D01*
X131605714Y-101508380D01*
X132796190Y-101508380D02*
X132605714Y-101508380D01*
X132510476Y-101556000D01*
X132462857Y-101603619D01*
X132367619Y-101746476D01*
X132320000Y-101936952D01*
X132320000Y-102317904D01*
X132367619Y-102413142D01*
X132415238Y-102460761D01*
X132510476Y-102508380D01*
X132700952Y-102508380D01*
X132796190Y-102460761D01*
X132843809Y-102413142D01*
X132891428Y-102317904D01*
X132891428Y-102079809D01*
X132843809Y-101984571D01*
X132796190Y-101936952D01*
X132700952Y-101889333D01*
X132510476Y-101889333D01*
X132415238Y-101936952D01*
X132367619Y-101984571D01*
X132320000Y-102079809D01*
X133320000Y-102508380D02*
X133320000Y-101508380D01*
X133415238Y-102127428D02*
X133700952Y-102508380D01*
X133700952Y-101841714D02*
X133320000Y-102222666D01*
X168708380Y-69930469D02*
X168708380Y-69835231D01*
X168756000Y-69739992D01*
X168803619Y-69692373D01*
X168898857Y-69644754D01*
X169089333Y-69597135D01*
X169327428Y-69597135D01*
X169517904Y-69644754D01*
X169613142Y-69692373D01*
X169660761Y-69739992D01*
X169708380Y-69835231D01*
X169708380Y-69930469D01*
X169660761Y-70025707D01*
X169613142Y-70073326D01*
X169517904Y-70120945D01*
X169327428Y-70168564D01*
X169089333Y-70168564D01*
X168898857Y-70120945D01*
X168803619Y-70073326D01*
X168756000Y-70025707D01*
X168708380Y-69930469D01*
X169613142Y-69168564D02*
X169660761Y-69120945D01*
X169708380Y-69168564D01*
X169660761Y-69216183D01*
X169613142Y-69168564D01*
X169708380Y-69168564D01*
X169708380Y-68168564D02*
X169708380Y-68739992D01*
X169708380Y-68454278D02*
X168708380Y-68454278D01*
X168851238Y-68549516D01*
X168946476Y-68644754D01*
X168994095Y-68739992D01*
X169041714Y-67311421D02*
X169708380Y-67311421D01*
X169041714Y-67739992D02*
X169565523Y-67739992D01*
X169660761Y-67692373D01*
X169708380Y-67597135D01*
X169708380Y-67454278D01*
X169660761Y-67359040D01*
X169613142Y-67311421D01*
X169184571Y-66501897D02*
X169184571Y-66835231D01*
X169708380Y-66835231D02*
X168708380Y-66835231D01*
X168708380Y-66359040D01*
X130415238Y-69329714D02*
X130415238Y-69996380D01*
X130177142Y-68948761D02*
X129939047Y-69663047D01*
X130558095Y-69663047D01*
X130939047Y-69901142D02*
X130986666Y-69948761D01*
X130939047Y-69996380D01*
X130891428Y-69948761D01*
X130939047Y-69901142D01*
X130939047Y-69996380D01*
X131605714Y-68996380D02*
X131700952Y-68996380D01*
X131796190Y-69044000D01*
X131843809Y-69091619D01*
X131891428Y-69186857D01*
X131939047Y-69377333D01*
X131939047Y-69615428D01*
X131891428Y-69805904D01*
X131843809Y-69901142D01*
X131796190Y-69948761D01*
X131700952Y-69996380D01*
X131605714Y-69996380D01*
X131510476Y-69948761D01*
X131462857Y-69901142D01*
X131415238Y-69805904D01*
X131367619Y-69615428D01*
X131367619Y-69377333D01*
X131415238Y-69186857D01*
X131462857Y-69091619D01*
X131510476Y-69044000D01*
X131605714Y-68996380D01*
X132320000Y-69091619D02*
X132367619Y-69044000D01*
X132462857Y-68996380D01*
X132700952Y-68996380D01*
X132796190Y-69044000D01*
X132843809Y-69091619D01*
X132891428Y-69186857D01*
X132891428Y-69282095D01*
X132843809Y-69424952D01*
X132272380Y-69996380D01*
X132891428Y-69996380D01*
X133320000Y-69996380D02*
X133320000Y-68996380D01*
X133415238Y-69615428D02*
X133700952Y-69996380D01*
X133700952Y-69329714D02*
X133320000Y-69710666D01*
X130415238Y-104889714D02*
X130415238Y-105556380D01*
X130177142Y-104508761D02*
X129939047Y-105223047D01*
X130558095Y-105223047D01*
X130939047Y-105461142D02*
X130986666Y-105508761D01*
X130939047Y-105556380D01*
X130891428Y-105508761D01*
X130939047Y-105461142D01*
X130939047Y-105556380D01*
X131605714Y-104556380D02*
X131700952Y-104556380D01*
X131796190Y-104604000D01*
X131843809Y-104651619D01*
X131891428Y-104746857D01*
X131939047Y-104937333D01*
X131939047Y-105175428D01*
X131891428Y-105365904D01*
X131843809Y-105461142D01*
X131796190Y-105508761D01*
X131700952Y-105556380D01*
X131605714Y-105556380D01*
X131510476Y-105508761D01*
X131462857Y-105461142D01*
X131415238Y-105365904D01*
X131367619Y-105175428D01*
X131367619Y-104937333D01*
X131415238Y-104746857D01*
X131462857Y-104651619D01*
X131510476Y-104604000D01*
X131605714Y-104556380D01*
X132320000Y-104651619D02*
X132367619Y-104604000D01*
X132462857Y-104556380D01*
X132700952Y-104556380D01*
X132796190Y-104604000D01*
X132843809Y-104651619D01*
X132891428Y-104746857D01*
X132891428Y-104842095D01*
X132843809Y-104984952D01*
X132272380Y-105556380D01*
X132891428Y-105556380D01*
X133320000Y-105556380D02*
X133320000Y-104556380D01*
X133415238Y-105175428D02*
X133700952Y-105556380D01*
X133700952Y-104889714D02*
X133320000Y-105270666D01*
X131058095Y-98285714D02*
X131058095Y-98952380D01*
X130820000Y-97904761D02*
X130581904Y-98619047D01*
X131200952Y-98619047D01*
X131629523Y-98952380D02*
X131820000Y-98952380D01*
X131915238Y-98904761D01*
X131962857Y-98857142D01*
X132058095Y-98714285D01*
X132105714Y-98523809D01*
X132105714Y-98142857D01*
X132058095Y-98047619D01*
X132010476Y-98000000D01*
X131915238Y-97952380D01*
X131724761Y-97952380D01*
X131629523Y-98000000D01*
X131581904Y-98047619D01*
X131534285Y-98142857D01*
X131534285Y-98380952D01*
X131581904Y-98476190D01*
X131629523Y-98523809D01*
X131724761Y-98571428D01*
X131915238Y-98571428D01*
X132010476Y-98523809D01*
X132058095Y-98476190D01*
X132105714Y-98380952D01*
X132581904Y-98952380D02*
X132772380Y-98952380D01*
X132867619Y-98904761D01*
X132915238Y-98857142D01*
X133010476Y-98714285D01*
X133058095Y-98523809D01*
X133058095Y-98142857D01*
X133010476Y-98047619D01*
X132962857Y-98000000D01*
X132867619Y-97952380D01*
X132677142Y-97952380D01*
X132581904Y-98000000D01*
X132534285Y-98047619D01*
X132486666Y-98142857D01*
X132486666Y-98380952D01*
X132534285Y-98476190D01*
X132581904Y-98523809D01*
X132677142Y-98571428D01*
X132867619Y-98571428D01*
X132962857Y-98523809D01*
X133010476Y-98476190D01*
X133058095Y-98380952D01*
X130129523Y-86188952D02*
X130034285Y-86141333D01*
X129986666Y-86093714D01*
X129939047Y-85998476D01*
X129939047Y-85950857D01*
X129986666Y-85855619D01*
X130034285Y-85808000D01*
X130129523Y-85760380D01*
X130320000Y-85760380D01*
X130415238Y-85808000D01*
X130462857Y-85855619D01*
X130510476Y-85950857D01*
X130510476Y-85998476D01*
X130462857Y-86093714D01*
X130415238Y-86141333D01*
X130320000Y-86188952D01*
X130129523Y-86188952D01*
X130034285Y-86236571D01*
X129986666Y-86284190D01*
X129939047Y-86379428D01*
X129939047Y-86569904D01*
X129986666Y-86665142D01*
X130034285Y-86712761D01*
X130129523Y-86760380D01*
X130320000Y-86760380D01*
X130415238Y-86712761D01*
X130462857Y-86665142D01*
X130510476Y-86569904D01*
X130510476Y-86379428D01*
X130462857Y-86284190D01*
X130415238Y-86236571D01*
X130320000Y-86188952D01*
X130939047Y-86665142D02*
X130986666Y-86712761D01*
X130939047Y-86760380D01*
X130891428Y-86712761D01*
X130939047Y-86665142D01*
X130939047Y-86760380D01*
X131605714Y-85760380D02*
X131700952Y-85760380D01*
X131796190Y-85808000D01*
X131843809Y-85855619D01*
X131891428Y-85950857D01*
X131939047Y-86141333D01*
X131939047Y-86379428D01*
X131891428Y-86569904D01*
X131843809Y-86665142D01*
X131796190Y-86712761D01*
X131700952Y-86760380D01*
X131605714Y-86760380D01*
X131510476Y-86712761D01*
X131462857Y-86665142D01*
X131415238Y-86569904D01*
X131367619Y-86379428D01*
X131367619Y-86141333D01*
X131415238Y-85950857D01*
X131462857Y-85855619D01*
X131510476Y-85808000D01*
X131605714Y-85760380D01*
X132796190Y-85760380D02*
X132605714Y-85760380D01*
X132510476Y-85808000D01*
X132462857Y-85855619D01*
X132367619Y-85998476D01*
X132320000Y-86188952D01*
X132320000Y-86569904D01*
X132367619Y-86665142D01*
X132415238Y-86712761D01*
X132510476Y-86760380D01*
X132700952Y-86760380D01*
X132796190Y-86712761D01*
X132843809Y-86665142D01*
X132891428Y-86569904D01*
X132891428Y-86331809D01*
X132843809Y-86236571D01*
X132796190Y-86188952D01*
X132700952Y-86141333D01*
X132510476Y-86141333D01*
X132415238Y-86188952D01*
X132367619Y-86236571D01*
X132320000Y-86331809D01*
X133320000Y-86760380D02*
X133320000Y-85760380D01*
X133415238Y-86379428D02*
X133700952Y-86760380D01*
X133700952Y-86093714D02*
X133320000Y-86474666D01*
X131129523Y-107699619D02*
X131177142Y-107652000D01*
X131272380Y-107604380D01*
X131510476Y-107604380D01*
X131605714Y-107652000D01*
X131653333Y-107699619D01*
X131700952Y-107794857D01*
X131700952Y-107890095D01*
X131653333Y-108032952D01*
X131081904Y-108604380D01*
X131700952Y-108604380D01*
X132129523Y-108604380D02*
X132129523Y-107604380D01*
X132224761Y-108223428D02*
X132510476Y-108604380D01*
X132510476Y-107937714D02*
X132129523Y-108318666D01*
X131058095Y-115049714D02*
X131058095Y-115716380D01*
X130820000Y-114668761D02*
X130581904Y-115383047D01*
X131200952Y-115383047D01*
X131629523Y-115716380D02*
X131820000Y-115716380D01*
X131915238Y-115668761D01*
X131962857Y-115621142D01*
X132058095Y-115478285D01*
X132105714Y-115287809D01*
X132105714Y-114906857D01*
X132058095Y-114811619D01*
X132010476Y-114764000D01*
X131915238Y-114716380D01*
X131724761Y-114716380D01*
X131629523Y-114764000D01*
X131581904Y-114811619D01*
X131534285Y-114906857D01*
X131534285Y-115144952D01*
X131581904Y-115240190D01*
X131629523Y-115287809D01*
X131724761Y-115335428D01*
X131915238Y-115335428D01*
X132010476Y-115287809D01*
X132058095Y-115240190D01*
X132105714Y-115144952D01*
X132581904Y-115716380D02*
X132772380Y-115716380D01*
X132867619Y-115668761D01*
X132915238Y-115621142D01*
X133010476Y-115478285D01*
X133058095Y-115287809D01*
X133058095Y-114906857D01*
X133010476Y-114811619D01*
X132962857Y-114764000D01*
X132867619Y-114716380D01*
X132677142Y-114716380D01*
X132581904Y-114764000D01*
X132534285Y-114811619D01*
X132486666Y-114906857D01*
X132486666Y-115144952D01*
X132534285Y-115240190D01*
X132581904Y-115287809D01*
X132677142Y-115335428D01*
X132867619Y-115335428D01*
X132962857Y-115287809D01*
X133010476Y-115240190D01*
X133058095Y-115144952D01*
X167602285Y-112001714D02*
X167602285Y-112668380D01*
X167364190Y-111620761D02*
X167126095Y-112335047D01*
X167745142Y-112335047D01*
X168030857Y-111668380D02*
X168697523Y-111668380D01*
X168268952Y-112668380D01*
X130129523Y-66376952D02*
X130034285Y-66329333D01*
X129986666Y-66281714D01*
X129939047Y-66186476D01*
X129939047Y-66138857D01*
X129986666Y-66043619D01*
X130034285Y-65996000D01*
X130129523Y-65948380D01*
X130320000Y-65948380D01*
X130415238Y-65996000D01*
X130462857Y-66043619D01*
X130510476Y-66138857D01*
X130510476Y-66186476D01*
X130462857Y-66281714D01*
X130415238Y-66329333D01*
X130320000Y-66376952D01*
X130129523Y-66376952D01*
X130034285Y-66424571D01*
X129986666Y-66472190D01*
X129939047Y-66567428D01*
X129939047Y-66757904D01*
X129986666Y-66853142D01*
X130034285Y-66900761D01*
X130129523Y-66948380D01*
X130320000Y-66948380D01*
X130415238Y-66900761D01*
X130462857Y-66853142D01*
X130510476Y-66757904D01*
X130510476Y-66567428D01*
X130462857Y-66472190D01*
X130415238Y-66424571D01*
X130320000Y-66376952D01*
X130939047Y-66853142D02*
X130986666Y-66900761D01*
X130939047Y-66948380D01*
X130891428Y-66900761D01*
X130939047Y-66853142D01*
X130939047Y-66948380D01*
X131605714Y-65948380D02*
X131700952Y-65948380D01*
X131796190Y-65996000D01*
X131843809Y-66043619D01*
X131891428Y-66138857D01*
X131939047Y-66329333D01*
X131939047Y-66567428D01*
X131891428Y-66757904D01*
X131843809Y-66853142D01*
X131796190Y-66900761D01*
X131700952Y-66948380D01*
X131605714Y-66948380D01*
X131510476Y-66900761D01*
X131462857Y-66853142D01*
X131415238Y-66757904D01*
X131367619Y-66567428D01*
X131367619Y-66329333D01*
X131415238Y-66138857D01*
X131462857Y-66043619D01*
X131510476Y-65996000D01*
X131605714Y-65948380D01*
X132796190Y-65948380D02*
X132605714Y-65948380D01*
X132510476Y-65996000D01*
X132462857Y-66043619D01*
X132367619Y-66186476D01*
X132320000Y-66376952D01*
X132320000Y-66757904D01*
X132367619Y-66853142D01*
X132415238Y-66900761D01*
X132510476Y-66948380D01*
X132700952Y-66948380D01*
X132796190Y-66900761D01*
X132843809Y-66853142D01*
X132891428Y-66757904D01*
X132891428Y-66519809D01*
X132843809Y-66424571D01*
X132796190Y-66376952D01*
X132700952Y-66329333D01*
X132510476Y-66329333D01*
X132415238Y-66376952D01*
X132367619Y-66424571D01*
X132320000Y-66519809D01*
X133320000Y-66948380D02*
X133320000Y-65948380D01*
X133415238Y-66567428D02*
X133700952Y-66948380D01*
X133700952Y-66281714D02*
X133320000Y-66662666D01*
X131058095Y-79743714D02*
X131058095Y-80410380D01*
X130820000Y-79362761D02*
X130581904Y-80077047D01*
X131200952Y-80077047D01*
X131629523Y-80410380D02*
X131820000Y-80410380D01*
X131915238Y-80362761D01*
X131962857Y-80315142D01*
X132058095Y-80172285D01*
X132105714Y-79981809D01*
X132105714Y-79600857D01*
X132058095Y-79505619D01*
X132010476Y-79458000D01*
X131915238Y-79410380D01*
X131724761Y-79410380D01*
X131629523Y-79458000D01*
X131581904Y-79505619D01*
X131534285Y-79600857D01*
X131534285Y-79838952D01*
X131581904Y-79934190D01*
X131629523Y-79981809D01*
X131724761Y-80029428D01*
X131915238Y-80029428D01*
X132010476Y-79981809D01*
X132058095Y-79934190D01*
X132105714Y-79838952D01*
X132581904Y-80410380D02*
X132772380Y-80410380D01*
X132867619Y-80362761D01*
X132915238Y-80315142D01*
X133010476Y-80172285D01*
X133058095Y-79981809D01*
X133058095Y-79600857D01*
X133010476Y-79505619D01*
X132962857Y-79458000D01*
X132867619Y-79410380D01*
X132677142Y-79410380D01*
X132581904Y-79458000D01*
X132534285Y-79505619D01*
X132486666Y-79600857D01*
X132486666Y-79838952D01*
X132534285Y-79934190D01*
X132581904Y-79981809D01*
X132677142Y-80029428D01*
X132867619Y-80029428D01*
X132962857Y-79981809D01*
X133010476Y-79934190D01*
X133058095Y-79838952D01*
X167092380Y-74421904D02*
X167901904Y-74421904D01*
X167997142Y-74374285D01*
X168044761Y-74326666D01*
X168092380Y-74231428D01*
X168092380Y-74040952D01*
X168044761Y-73945714D01*
X167997142Y-73898095D01*
X167901904Y-73850476D01*
X167092380Y-73850476D01*
X167187619Y-73421904D02*
X167140000Y-73374285D01*
X167092380Y-73279047D01*
X167092380Y-73040952D01*
X167140000Y-72945714D01*
X167187619Y-72898095D01*
X167282857Y-72850476D01*
X167378095Y-72850476D01*
X167520952Y-72898095D01*
X168092380Y-73469523D01*
X168092380Y-72850476D01*
X168616380Y-87794435D02*
X168616380Y-87699197D01*
X168664000Y-87603959D01*
X168711619Y-87556340D01*
X168806857Y-87508721D01*
X168997333Y-87461102D01*
X169235428Y-87461102D01*
X169425904Y-87508721D01*
X169521142Y-87556340D01*
X169568761Y-87603959D01*
X169616380Y-87699197D01*
X169616380Y-87794435D01*
X169568761Y-87889673D01*
X169521142Y-87937292D01*
X169425904Y-87984911D01*
X169235428Y-88032530D01*
X168997333Y-88032530D01*
X168806857Y-87984911D01*
X168711619Y-87937292D01*
X168664000Y-87889673D01*
X168616380Y-87794435D01*
X169521142Y-87032530D02*
X169568761Y-86984911D01*
X169616380Y-87032530D01*
X169568761Y-87080149D01*
X169521142Y-87032530D01*
X169616380Y-87032530D01*
X168616380Y-86651578D02*
X168616380Y-86032530D01*
X168997333Y-86365864D01*
X168997333Y-86223007D01*
X169044952Y-86127768D01*
X169092571Y-86080149D01*
X169187809Y-86032530D01*
X169425904Y-86032530D01*
X169521142Y-86080149D01*
X169568761Y-86127768D01*
X169616380Y-86223007D01*
X169616380Y-86508721D01*
X169568761Y-86603959D01*
X169521142Y-86651578D01*
X168616380Y-85699197D02*
X168616380Y-85080149D01*
X168997333Y-85413483D01*
X168997333Y-85270626D01*
X169044952Y-85175388D01*
X169092571Y-85127768D01*
X169187809Y-85080149D01*
X169425904Y-85080149D01*
X169521142Y-85127768D01*
X169568761Y-85175388D01*
X169616380Y-85270626D01*
X169616380Y-85556340D01*
X169568761Y-85651578D01*
X169521142Y-85699197D01*
X168949714Y-84223007D02*
X169616380Y-84223007D01*
X168949714Y-84651578D02*
X169473523Y-84651578D01*
X169568761Y-84603959D01*
X169616380Y-84508721D01*
X169616380Y-84365864D01*
X169568761Y-84270626D01*
X169521142Y-84223007D01*
X169092571Y-83413483D02*
X169092571Y-83746816D01*
X169616380Y-83746816D02*
X168616380Y-83746816D01*
X168616380Y-83270626D01*
X171116666Y-131095211D02*
X171116666Y-131809497D01*
X171069047Y-131952354D01*
X170973809Y-132047592D01*
X170830952Y-132095211D01*
X170735714Y-132095211D01*
X171545238Y-131190450D02*
X171592857Y-131142831D01*
X171688095Y-131095211D01*
X171926190Y-131095211D01*
X172021428Y-131142831D01*
X172069047Y-131190450D01*
X172116666Y-131285688D01*
X172116666Y-131380926D01*
X172069047Y-131523783D01*
X171497619Y-132095211D01*
X172116666Y-132095211D01*
X178544666Y-72129880D02*
X178544666Y-72844166D01*
X178497047Y-72987023D01*
X178401809Y-73082261D01*
X178258952Y-73129880D01*
X178163714Y-73129880D01*
X179544666Y-73129880D02*
X178973238Y-73129880D01*
X179258952Y-73129880D02*
X179258952Y-72129880D01*
X179163714Y-72272738D01*
X179068476Y-72367976D01*
X178973238Y-72415595D01*
X131129523Y-73409619D02*
X131177142Y-73362000D01*
X131272380Y-73314380D01*
X131510476Y-73314380D01*
X131605714Y-73362000D01*
X131653333Y-73409619D01*
X131700952Y-73504857D01*
X131700952Y-73600095D01*
X131653333Y-73742952D01*
X131081904Y-74314380D01*
X131700952Y-74314380D01*
X132129523Y-74314380D02*
X132129523Y-73314380D01*
X132224761Y-73933428D02*
X132510476Y-74314380D01*
X132510476Y-73647714D02*
X132129523Y-74028666D01*
X167602285Y-115049714D02*
X167602285Y-115716380D01*
X167364190Y-114668761D02*
X167126095Y-115383047D01*
X167745142Y-115383047D01*
X168030857Y-114716380D02*
X168697523Y-114716380D01*
X168268952Y-115716380D01*
X131700952Y-95904380D02*
X131129523Y-95904380D01*
X131415238Y-95904380D02*
X131415238Y-94904380D01*
X131320000Y-95047238D01*
X131224761Y-95142476D01*
X131129523Y-95190095D01*
X132129523Y-95904380D02*
X132129523Y-94904380D01*
X132224761Y-95523428D02*
X132510476Y-95904380D01*
X132510476Y-95237714D02*
X132129523Y-95618666D01*
X163530380Y-97396666D02*
X163530380Y-97872857D01*
X164006571Y-97920476D01*
X163958952Y-97872857D01*
X163911333Y-97777619D01*
X163911333Y-97539523D01*
X163958952Y-97444285D01*
X164006571Y-97396666D01*
X164101809Y-97349047D01*
X164339904Y-97349047D01*
X164435142Y-97396666D01*
X164482761Y-97444285D01*
X164530380Y-97539523D01*
X164530380Y-97777619D01*
X164482761Y-97872857D01*
X164435142Y-97920476D01*
X164530380Y-96920476D02*
X163530380Y-96920476D01*
X164149428Y-96825238D02*
X164530380Y-96539523D01*
X163863714Y-96539523D02*
X164244666Y-96920476D01*
X131700952Y-77362380D02*
X131129523Y-77362380D01*
X131415238Y-77362380D02*
X131415238Y-76362380D01*
X131320000Y-76505238D01*
X131224761Y-76600476D01*
X131129523Y-76648095D01*
X132129523Y-77362380D02*
X132129523Y-76362380D01*
X132224761Y-76981428D02*
X132510476Y-77362380D01*
X132510476Y-76695714D02*
X132129523Y-77076666D01*
X131129523Y-91951619D02*
X131177142Y-91904000D01*
X131272380Y-91856380D01*
X131510476Y-91856380D01*
X131605714Y-91904000D01*
X131653333Y-91951619D01*
X131700952Y-92046857D01*
X131700952Y-92142095D01*
X131653333Y-92284952D01*
X131081904Y-92856380D01*
X131700952Y-92856380D01*
X132129523Y-92856380D02*
X132129523Y-91856380D01*
X132224761Y-92475428D02*
X132510476Y-92856380D01*
X132510476Y-92189714D02*
X132129523Y-92570666D01*
X148838095Y-90332380D02*
X148838095Y-91141904D01*
X148885714Y-91237142D01*
X148933333Y-91284761D01*
X149028571Y-91332380D01*
X149219047Y-91332380D01*
X149314285Y-91284761D01*
X149361904Y-91237142D01*
X149409523Y-91141904D01*
X149409523Y-90332380D01*
X150409523Y-91332380D02*
X149838095Y-91332380D01*
X150123809Y-91332380D02*
X150123809Y-90332380D01*
X150028571Y-90475238D01*
X149933333Y-90570476D01*
X149838095Y-90618095D01*
X166578380Y-97396666D02*
X166578380Y-97872857D01*
X167054571Y-97920476D01*
X167006952Y-97872857D01*
X166959333Y-97777619D01*
X166959333Y-97539523D01*
X167006952Y-97444285D01*
X167054571Y-97396666D01*
X167149809Y-97349047D01*
X167387904Y-97349047D01*
X167483142Y-97396666D01*
X167530761Y-97444285D01*
X167578380Y-97539523D01*
X167578380Y-97777619D01*
X167530761Y-97872857D01*
X167483142Y-97920476D01*
X167578380Y-96920476D02*
X166578380Y-96920476D01*
X167197428Y-96825238D02*
X167578380Y-96539523D01*
X166911714Y-96539523D02*
X167292666Y-96920476D01*
X130415238Y-89141714D02*
X130415238Y-89808380D01*
X130177142Y-88760761D02*
X129939047Y-89475047D01*
X130558095Y-89475047D01*
X130939047Y-89713142D02*
X130986666Y-89760761D01*
X130939047Y-89808380D01*
X130891428Y-89760761D01*
X130939047Y-89713142D01*
X130939047Y-89808380D01*
X131605714Y-88808380D02*
X131700952Y-88808380D01*
X131796190Y-88856000D01*
X131843809Y-88903619D01*
X131891428Y-88998857D01*
X131939047Y-89189333D01*
X131939047Y-89427428D01*
X131891428Y-89617904D01*
X131843809Y-89713142D01*
X131796190Y-89760761D01*
X131700952Y-89808380D01*
X131605714Y-89808380D01*
X131510476Y-89760761D01*
X131462857Y-89713142D01*
X131415238Y-89617904D01*
X131367619Y-89427428D01*
X131367619Y-89189333D01*
X131415238Y-88998857D01*
X131462857Y-88903619D01*
X131510476Y-88856000D01*
X131605714Y-88808380D01*
X132320000Y-88903619D02*
X132367619Y-88856000D01*
X132462857Y-88808380D01*
X132700952Y-88808380D01*
X132796190Y-88856000D01*
X132843809Y-88903619D01*
X132891428Y-88998857D01*
X132891428Y-89094095D01*
X132843809Y-89236952D01*
X132272380Y-89808380D01*
X132891428Y-89808380D01*
X133320000Y-89808380D02*
X133320000Y-88808380D01*
X133415238Y-89427428D02*
X133700952Y-89808380D01*
X133700952Y-89141714D02*
X133320000Y-89522666D01*
D11*
X135090000Y-110846000D02*
X135090000Y-111176000D01*
X128550000Y-111176000D02*
X128550000Y-110846000D01*
X128550000Y-113256000D02*
X128550000Y-113586000D01*
X135090000Y-113586000D02*
X135090000Y-113256000D01*
X128550000Y-110846000D02*
X135090000Y-110846000D01*
X128550000Y-113586000D02*
X135090000Y-113586000D01*
X128550000Y-100686000D02*
X135090000Y-100686000D01*
X128550000Y-103096000D02*
X128550000Y-103426000D01*
X135090000Y-103426000D02*
X135090000Y-103096000D01*
X128550000Y-101016000D02*
X128550000Y-100686000D01*
X128550000Y-103426000D02*
X135090000Y-103426000D01*
X135090000Y-100686000D02*
X135090000Y-101016000D01*
X166546000Y-66606612D02*
X167477000Y-66606612D01*
X162927000Y-68207612D02*
X164466000Y-68207612D01*
X166546000Y-67406612D02*
X167934000Y-67406612D01*
X164063000Y-66126612D02*
X166949000Y-66126612D01*
X166546000Y-68207612D02*
X168085000Y-68207612D01*
X163569000Y-66566612D02*
X164466000Y-66566612D01*
X166546000Y-67446612D02*
X167948000Y-67446612D01*
X164591000Y-65846612D02*
X166421000Y-65846612D01*
X166546000Y-66486612D02*
X167370000Y-66486612D01*
X164829000Y-65766612D02*
X166183000Y-65766612D01*
X166546000Y-67727612D02*
X168026000Y-67727612D01*
X163763000Y-66366612D02*
X164466000Y-66366612D01*
X164006000Y-66166612D02*
X167006000Y-66166612D01*
X163721000Y-66406612D02*
X164466000Y-66406612D01*
X166546000Y-67046612D02*
X167774000Y-67046612D01*
X163196000Y-67126612D02*
X164466000Y-67126612D01*
X163064000Y-67446612D02*
X164466000Y-67446612D01*
X166546000Y-67486612D02*
X167961000Y-67486612D01*
X166546000Y-67767612D02*
X168034000Y-67767612D01*
X166546000Y-68087612D02*
X168079000Y-68087612D01*
X164031000Y-71092387D02*
X164031000Y-70592387D01*
X166546000Y-68047612D02*
X168075000Y-68047612D01*
X166546000Y-67847612D02*
X168049000Y-67847612D01*
X163124000Y-67286612D02*
X164466000Y-67286612D01*
X162933000Y-68087612D02*
X164466000Y-68087612D01*
X162956000Y-67887612D02*
X164466000Y-67887612D01*
X166546000Y-66286612D02*
X167159000Y-66286612D01*
X162950000Y-67927612D02*
X164466000Y-67927612D01*
X166546000Y-67927612D02*
X168062000Y-67927612D01*
X166546000Y-68247612D02*
X168086000Y-68247612D01*
X163026000Y-67566612D02*
X164466000Y-67566612D01*
X164701000Y-65806612D02*
X166311000Y-65806612D01*
X166546000Y-66926612D02*
X167706000Y-66926612D01*
X165222000Y-65686612D02*
X165790000Y-65686612D01*
X166546000Y-67126612D02*
X167816000Y-67126612D01*
X163642000Y-66486612D02*
X164466000Y-66486612D01*
X164988000Y-65726612D02*
X166024000Y-65726612D01*
X164495000Y-65886612D02*
X166517000Y-65886612D01*
X166546000Y-66846612D02*
X167655000Y-66846612D01*
X163158000Y-67206612D02*
X164466000Y-67206612D01*
X164187000Y-66046612D02*
X166825000Y-66046612D01*
X166546000Y-67687612D02*
X168017000Y-67687612D01*
X164408000Y-65926612D02*
X166604000Y-65926612D01*
X162928000Y-68167612D02*
X164466000Y-68167612D01*
X162937000Y-68047612D02*
X164466000Y-68047612D01*
X166546000Y-67086612D02*
X167796000Y-67086612D01*
X166546000Y-67967612D02*
X168067000Y-67967612D01*
X162963000Y-67847612D02*
X164466000Y-67847612D01*
X163108000Y-67326612D02*
X164466000Y-67326612D01*
X162945000Y-67967612D02*
X164466000Y-67967612D01*
X164255000Y-66006612D02*
X166757000Y-66006612D01*
X162926000Y-68287612D02*
X164466000Y-68287612D01*
X166546000Y-67647612D02*
X168007000Y-67647612D01*
X163238000Y-67046612D02*
X164466000Y-67046612D01*
X163177000Y-67166612D02*
X164466000Y-67166612D01*
X166546000Y-68127612D02*
X168082000Y-68127612D01*
X166546000Y-66406612D02*
X167291000Y-66406612D01*
X163441000Y-66726612D02*
X164466000Y-66726612D01*
X166546000Y-67366612D02*
X167920000Y-67366612D01*
X166546000Y-67246612D02*
X167871000Y-67246612D01*
X166546000Y-66326612D02*
X167205000Y-66326612D01*
X163605000Y-66526612D02*
X164466000Y-66526612D01*
X166546000Y-66686612D02*
X167541000Y-66686612D01*
X166546000Y-66806612D02*
X167628000Y-66806612D01*
X162995000Y-67687612D02*
X164466000Y-67687612D01*
X166546000Y-67526612D02*
X167974000Y-67526612D01*
X166546000Y-66526612D02*
X167407000Y-66526612D01*
X166546000Y-67206612D02*
X167854000Y-67206612D01*
X166546000Y-66446612D02*
X167332000Y-66446612D01*
X162930000Y-68127612D02*
X164466000Y-68127612D01*
X162986000Y-67727612D02*
X164466000Y-67727612D01*
X163411000Y-66766612D02*
X164466000Y-66766612D01*
X166546000Y-66726612D02*
X167571000Y-66726612D01*
X162978000Y-67767612D02*
X164466000Y-67767612D01*
X163680000Y-66446612D02*
X164466000Y-66446612D01*
X162926000Y-68247612D02*
X164466000Y-68247612D01*
X166546000Y-67566612D02*
X167986000Y-67566612D01*
X163781000Y-70842387D02*
X164281000Y-70842387D01*
X163952000Y-66206612D02*
X167060000Y-66206612D01*
X166546000Y-68287612D02*
X168086000Y-68287612D01*
X163471000Y-66686612D02*
X164466000Y-66686612D01*
X163807000Y-66326612D02*
X164466000Y-66326612D01*
X163306000Y-66926612D02*
X164466000Y-66926612D01*
X166546000Y-67286612D02*
X167888000Y-67286612D01*
X166546000Y-67887612D02*
X168056000Y-67887612D01*
X163051000Y-67486612D02*
X164466000Y-67486612D01*
X163141000Y-67246612D02*
X164466000Y-67246612D01*
X166546000Y-68167612D02*
X168084000Y-68167612D01*
X166546000Y-67807612D02*
X168042000Y-67807612D01*
X163282000Y-66966612D02*
X164466000Y-66966612D01*
X166546000Y-67006612D02*
X167753000Y-67006612D01*
X163901000Y-66246612D02*
X167111000Y-66246612D01*
X166546000Y-68007612D02*
X168071000Y-68007612D01*
X163384000Y-66806612D02*
X164466000Y-66806612D01*
X163078000Y-67406612D02*
X164466000Y-67406612D01*
X164123000Y-66086612D02*
X166889000Y-66086612D01*
X166546000Y-67326612D02*
X167904000Y-67326612D01*
X163216000Y-67086612D02*
X164466000Y-67086612D01*
X166546000Y-67166612D02*
X167835000Y-67166612D01*
X164328000Y-65966612D02*
X166684000Y-65966612D01*
X162970000Y-67807612D02*
X164466000Y-67807612D01*
X166546000Y-67607612D02*
X167997000Y-67607612D01*
X163259000Y-67006612D02*
X164466000Y-67006612D01*
X163535000Y-66606612D02*
X164466000Y-66606612D01*
X163005000Y-67647612D02*
X164466000Y-67647612D01*
X163331000Y-66886612D02*
X164466000Y-66886612D01*
X163502000Y-66646612D02*
X164466000Y-66646612D01*
X163357000Y-66846612D02*
X164466000Y-66846612D01*
X163015000Y-67607612D02*
X164466000Y-67607612D01*
X166546000Y-66366612D02*
X167249000Y-66366612D01*
X166546000Y-66966612D02*
X167730000Y-66966612D01*
X166546000Y-66566612D02*
X167443000Y-66566612D01*
X162941000Y-68007612D02*
X164466000Y-68007612D01*
X166546000Y-66646612D02*
X167510000Y-66646612D01*
X163853000Y-66286612D02*
X164466000Y-66286612D01*
X163092000Y-67366612D02*
X164466000Y-67366612D01*
X163038000Y-67526612D02*
X164466000Y-67526612D01*
X166546000Y-66766612D02*
X167601000Y-66766612D01*
X166546000Y-66886612D02*
X167681000Y-66886612D01*
X168126000Y-68287612D02*
G75*
G03*
X168126000Y-68287612I-2620000J0D01*
G01*
X135090000Y-68174000D02*
X135090000Y-68504000D01*
X135090000Y-70914000D02*
X135090000Y-70584000D01*
X128550000Y-68174000D02*
X135090000Y-68174000D01*
X128550000Y-68504000D02*
X128550000Y-68174000D01*
X128550000Y-70914000D02*
X135090000Y-70914000D01*
X128550000Y-70584000D02*
X128550000Y-70914000D01*
X128550000Y-106474000D02*
X135090000Y-106474000D01*
X128550000Y-104064000D02*
X128550000Y-103734000D01*
X128550000Y-103734000D02*
X135090000Y-103734000D01*
X135090000Y-106474000D02*
X135090000Y-106144000D01*
X135090000Y-103734000D02*
X135090000Y-104064000D01*
X128550000Y-106144000D02*
X128550000Y-106474000D01*
X128550000Y-97460000D02*
X128550000Y-97130000D01*
X128550000Y-99870000D02*
X135090000Y-99870000D01*
X135090000Y-99870000D02*
X135090000Y-99540000D01*
X128550000Y-99540000D02*
X128550000Y-99870000D01*
X128550000Y-97130000D02*
X135090000Y-97130000D01*
X135090000Y-97130000D02*
X135090000Y-97460000D01*
X128550000Y-87678000D02*
X135090000Y-87678000D01*
X128550000Y-87348000D02*
X128550000Y-87678000D01*
X135090000Y-84938000D02*
X135090000Y-85268000D01*
X135090000Y-87678000D02*
X135090000Y-87348000D01*
X128550000Y-85268000D02*
X128550000Y-84938000D01*
X128550000Y-84938000D02*
X135090000Y-84938000D01*
X128550000Y-109192000D02*
X128550000Y-109522000D01*
X135090000Y-106782000D02*
X135090000Y-107112000D01*
X128550000Y-109522000D02*
X135090000Y-109522000D01*
X128550000Y-107112000D02*
X128550000Y-106782000D01*
X128550000Y-106782000D02*
X135090000Y-106782000D01*
X135090000Y-109522000D02*
X135090000Y-109192000D01*
X128550000Y-116634000D02*
X135090000Y-116634000D01*
X135090000Y-116634000D02*
X135090000Y-116304000D01*
X128550000Y-114224000D02*
X128550000Y-113894000D01*
X135090000Y-113894000D02*
X135090000Y-114224000D01*
X128550000Y-116304000D02*
X128550000Y-116634000D01*
X128550000Y-113894000D02*
X135090000Y-113894000D01*
X178027000Y-102111000D02*
X178027000Y-96911000D01*
X178027000Y-98401000D02*
X184027000Y-98401000D01*
X178027000Y-100401000D02*
X184027000Y-100401000D01*
X184027000Y-98621000D02*
X178027000Y-98621000D01*
X184027000Y-97861000D02*
X184027000Y-98621000D01*
X178027000Y-98521000D02*
X184027000Y-98521000D01*
X175367000Y-99511000D02*
X178027000Y-99511000D01*
X174969929Y-100401000D02*
X175367000Y-100401000D01*
X184027000Y-101161000D02*
X178027000Y-101161000D01*
X175367000Y-102111000D02*
X178027000Y-102111000D01*
X175037000Y-98621000D02*
X175367000Y-98621000D01*
X178027000Y-98161000D02*
X184027000Y-98161000D01*
X178027000Y-98281000D02*
X184027000Y-98281000D01*
X172657000Y-96971000D02*
X173927000Y-96971000D01*
X175037000Y-97861000D02*
X175367000Y-97861000D01*
X175367000Y-96911000D02*
X175367000Y-102111000D01*
X184027000Y-100401000D02*
X184027000Y-101161000D01*
X178027000Y-97861000D02*
X184027000Y-97861000D01*
X178027000Y-96911000D02*
X175367000Y-96911000D01*
X178027000Y-97921000D02*
X184027000Y-97921000D01*
X174969929Y-101161000D02*
X175367000Y-101161000D01*
X178027000Y-98041000D02*
X184027000Y-98041000D01*
X172657000Y-98241000D02*
X172657000Y-96971000D01*
X171158000Y-113256000D02*
X171158000Y-113586000D01*
X171158000Y-110846000D02*
X164618000Y-110846000D01*
X164618000Y-113586000D02*
X164618000Y-113256000D01*
X164618000Y-110846000D02*
X164618000Y-111176000D01*
X171158000Y-113586000D02*
X164618000Y-113586000D01*
X171158000Y-111176000D02*
X171158000Y-110846000D01*
X128550000Y-67536000D02*
X128550000Y-67866000D01*
X128550000Y-65456000D02*
X128550000Y-65126000D01*
X135090000Y-67866000D02*
X135090000Y-67536000D01*
X128550000Y-65126000D02*
X135090000Y-65126000D01*
X128550000Y-67866000D02*
X135090000Y-67866000D01*
X135090000Y-65126000D02*
X135090000Y-65456000D01*
X128550000Y-80998000D02*
X128550000Y-81328000D01*
X135090000Y-78588000D02*
X135090000Y-78918000D01*
X128550000Y-81328000D02*
X135090000Y-81328000D01*
X128550000Y-78918000D02*
X128550000Y-78588000D01*
X128550000Y-78588000D02*
X135090000Y-78588000D01*
X135090000Y-81328000D02*
X135090000Y-80998000D01*
X162165000Y-82088500D02*
X166806000Y-82088500D01*
X163675000Y-82088500D02*
X163675000Y-71848500D01*
X162165000Y-78818500D02*
X163675000Y-78818500D01*
X162165000Y-82088500D02*
X162165000Y-71848500D01*
X166806000Y-82088500D02*
X166806000Y-71848500D01*
X162165000Y-71848500D02*
X166806000Y-71848500D01*
X162165000Y-75117500D02*
X163675000Y-75117500D01*
X168067000Y-85715388D02*
X166546000Y-85715388D01*
X167796000Y-86596388D02*
X166546000Y-86596388D01*
X164466000Y-86236388D02*
X163064000Y-86236388D01*
X167655000Y-86836388D02*
X166546000Y-86836388D01*
X166981000Y-82590613D02*
X166981000Y-83090613D01*
X164466000Y-86276388D02*
X163078000Y-86276388D01*
X164466000Y-85635388D02*
X162937000Y-85635388D01*
X164466000Y-87276388D02*
X163721000Y-87276388D01*
X167730000Y-86716388D02*
X166546000Y-86716388D01*
X167407000Y-87156388D02*
X166546000Y-87156388D01*
X167948000Y-86236388D02*
X166546000Y-86236388D01*
X164466000Y-87316388D02*
X163763000Y-87316388D01*
X164466000Y-86716388D02*
X163282000Y-86716388D01*
X164466000Y-87156388D02*
X163605000Y-87156388D01*
X167060000Y-87476388D02*
X163952000Y-87476388D01*
X164466000Y-86516388D02*
X163177000Y-86516388D01*
X167571000Y-86956388D02*
X166546000Y-86956388D01*
X164466000Y-86956388D02*
X163441000Y-86956388D01*
X164466000Y-85395388D02*
X162926000Y-85395388D01*
X168084000Y-85515388D02*
X166546000Y-85515388D01*
X168026000Y-85955388D02*
X166546000Y-85955388D01*
X164466000Y-85555388D02*
X162930000Y-85555388D01*
X166517000Y-87796388D02*
X164495000Y-87796388D01*
X167510000Y-87036388D02*
X166546000Y-87036388D01*
X168017000Y-85995388D02*
X166546000Y-85995388D01*
X164466000Y-86396388D02*
X163124000Y-86396388D01*
X168049000Y-85835388D02*
X166546000Y-85835388D01*
X167835000Y-86516388D02*
X166546000Y-86516388D01*
X168007000Y-86035388D02*
X166546000Y-86035388D01*
X167961000Y-86196388D02*
X166546000Y-86196388D01*
X167443000Y-87116388D02*
X166546000Y-87116388D01*
X167332000Y-87236388D02*
X166546000Y-87236388D01*
X164466000Y-87076388D02*
X163535000Y-87076388D01*
X164466000Y-86356388D02*
X163108000Y-86356388D01*
X164466000Y-86035388D02*
X163005000Y-86035388D01*
X167249000Y-87316388D02*
X166546000Y-87316388D01*
X164466000Y-85515388D02*
X162928000Y-85515388D01*
X164466000Y-86996388D02*
X163471000Y-86996388D01*
X168071000Y-85675388D02*
X166546000Y-85675388D01*
X168042000Y-85875388D02*
X166546000Y-85875388D01*
X166825000Y-87636388D02*
X164187000Y-87636388D01*
X167231000Y-82840613D02*
X166731000Y-82840613D01*
X164466000Y-87356388D02*
X163807000Y-87356388D01*
X168062000Y-85755388D02*
X166546000Y-85755388D01*
X164466000Y-86796388D02*
X163331000Y-86796388D01*
X168079000Y-85595388D02*
X166546000Y-85595388D01*
X168086000Y-85435388D02*
X166546000Y-85435388D01*
X166421000Y-87836388D02*
X164591000Y-87836388D01*
X164466000Y-86476388D02*
X163158000Y-86476388D01*
X164466000Y-86636388D02*
X163238000Y-86636388D01*
X164466000Y-87396388D02*
X163853000Y-87396388D01*
X166949000Y-87556388D02*
X164063000Y-87556388D01*
X164466000Y-85955388D02*
X162986000Y-85955388D01*
X164466000Y-85995388D02*
X162995000Y-85995388D01*
X167888000Y-86396388D02*
X166546000Y-86396388D01*
X167706000Y-86756388D02*
X166546000Y-86756388D01*
X164466000Y-85795388D02*
X162956000Y-85795388D01*
X167681000Y-86796388D02*
X166546000Y-86796388D01*
X164466000Y-87036388D02*
X163502000Y-87036388D01*
X167541000Y-86996388D02*
X166546000Y-86996388D01*
X164466000Y-87236388D02*
X163680000Y-87236388D01*
X164466000Y-86596388D02*
X163216000Y-86596388D01*
X167205000Y-87356388D02*
X166546000Y-87356388D01*
X167753000Y-86676388D02*
X166546000Y-86676388D01*
X164466000Y-87196388D02*
X163642000Y-87196388D01*
X166889000Y-87596388D02*
X164123000Y-87596388D01*
X164466000Y-86876388D02*
X163384000Y-86876388D01*
X166757000Y-87676388D02*
X164255000Y-87676388D01*
X167871000Y-86436388D02*
X166546000Y-86436388D01*
X166024000Y-87956388D02*
X164988000Y-87956388D01*
X164466000Y-86196388D02*
X163051000Y-86196388D01*
X168086000Y-85395388D02*
X166546000Y-85395388D01*
X164466000Y-85595388D02*
X162933000Y-85595388D01*
X164466000Y-85715388D02*
X162945000Y-85715388D01*
X164466000Y-86916388D02*
X163411000Y-86916388D01*
X164466000Y-86756388D02*
X163306000Y-86756388D01*
X164466000Y-86436388D02*
X163141000Y-86436388D01*
X167601000Y-86916388D02*
X166546000Y-86916388D01*
X164466000Y-85475388D02*
X162927000Y-85475388D01*
X167920000Y-86316388D02*
X166546000Y-86316388D01*
X168085000Y-85475388D02*
X166546000Y-85475388D01*
X167291000Y-87276388D02*
X166546000Y-87276388D01*
X166684000Y-87716388D02*
X164328000Y-87716388D01*
X167854000Y-86476388D02*
X166546000Y-86476388D01*
X168034000Y-85915388D02*
X166546000Y-85915388D01*
X167477000Y-87076388D02*
X166546000Y-87076388D01*
X167628000Y-86876388D02*
X166546000Y-86876388D01*
X164466000Y-85435388D02*
X162926000Y-85435388D01*
X166311000Y-87876388D02*
X164701000Y-87876388D01*
X164466000Y-85875388D02*
X162970000Y-85875388D01*
X167816000Y-86556388D02*
X166546000Y-86556388D01*
X164466000Y-86556388D02*
X163196000Y-86556388D01*
X164466000Y-87116388D02*
X163569000Y-87116388D01*
X164466000Y-85755388D02*
X162950000Y-85755388D01*
X166183000Y-87916388D02*
X164829000Y-87916388D01*
X164466000Y-86676388D02*
X163259000Y-86676388D01*
X167774000Y-86636388D02*
X166546000Y-86636388D01*
X166604000Y-87756388D02*
X164408000Y-87756388D01*
X164466000Y-86075388D02*
X163015000Y-86075388D01*
X167159000Y-87396388D02*
X166546000Y-87396388D01*
X167006000Y-87516388D02*
X164006000Y-87516388D01*
X164466000Y-86116388D02*
X163026000Y-86116388D01*
X167997000Y-86075388D02*
X166546000Y-86075388D01*
X167986000Y-86116388D02*
X166546000Y-86116388D01*
X164466000Y-85835388D02*
X162963000Y-85835388D01*
X167904000Y-86356388D02*
X166546000Y-86356388D01*
X168075000Y-85635388D02*
X166546000Y-85635388D01*
X167370000Y-87196388D02*
X166546000Y-87196388D01*
X164466000Y-86836388D02*
X163357000Y-86836388D01*
X167974000Y-86156388D02*
X166546000Y-86156388D01*
X164466000Y-86156388D02*
X163038000Y-86156388D01*
X164466000Y-85915388D02*
X162978000Y-85915388D01*
X165790000Y-87996388D02*
X165222000Y-87996388D01*
X167934000Y-86276388D02*
X166546000Y-86276388D01*
X167111000Y-87436388D02*
X163901000Y-87436388D01*
X164466000Y-86316388D02*
X163092000Y-86316388D01*
X168056000Y-85795388D02*
X166546000Y-85795388D01*
X168082000Y-85555388D02*
X166546000Y-85555388D01*
X164466000Y-85675388D02*
X162941000Y-85675388D01*
X168126000Y-85395388D02*
G75*
G03*
X168126000Y-85395388I-2620000J0D01*
G01*
X138932000Y-119152000D02*
X169932000Y-119152000D01*
X158547000Y-118407662D02*
X159047000Y-118407662D01*
X159047000Y-118407662D02*
X158797000Y-118840675D01*
X158797000Y-118840675D02*
X158547000Y-118407662D01*
X138932000Y-135352000D02*
X138932000Y-119152000D01*
X169932000Y-119152000D02*
X169932000Y-135352000D01*
X184027000Y-92527000D02*
X184027000Y-93287000D01*
X178027000Y-90047000D02*
X184027000Y-90047000D01*
X184027000Y-89987000D02*
X184027000Y-90747000D01*
X175367000Y-91637000D02*
X178027000Y-91637000D01*
X178027000Y-90167000D02*
X184027000Y-90167000D01*
X184027000Y-90747000D02*
X178027000Y-90747000D01*
X178027000Y-89037000D02*
X175367000Y-89037000D01*
X178027000Y-90407000D02*
X184027000Y-90407000D01*
X178027000Y-90287000D02*
X184027000Y-90287000D01*
X175037000Y-89987000D02*
X175367000Y-89987000D01*
X172657000Y-89097000D02*
X173927000Y-89097000D01*
X175367000Y-89037000D02*
X175367000Y-94237000D01*
X178027000Y-94237000D02*
X178027000Y-89037000D01*
X178027000Y-90647000D02*
X184027000Y-90647000D01*
X175037000Y-90747000D02*
X175367000Y-90747000D01*
X172657000Y-90367000D02*
X172657000Y-89097000D01*
X174969929Y-92527000D02*
X175367000Y-92527000D01*
X174969929Y-93287000D02*
X175367000Y-93287000D01*
X178027000Y-92527000D02*
X184027000Y-92527000D01*
X178027000Y-89987000D02*
X184027000Y-89987000D01*
X184027000Y-93287000D02*
X178027000Y-93287000D01*
X175367000Y-94237000D02*
X178027000Y-94237000D01*
X178027000Y-90527000D02*
X184027000Y-90527000D01*
X169528000Y-73827500D02*
X171428000Y-73827500D01*
X169528000Y-83027500D02*
X169528000Y-80427500D01*
X169328000Y-82177500D02*
X169328000Y-83227500D01*
X184228000Y-83027500D02*
X169528000Y-83027500D01*
X184228000Y-73827500D02*
X184228000Y-83027500D01*
X175428000Y-73827500D02*
X184228000Y-73827500D01*
X170378000Y-83227500D02*
X169328000Y-83227500D01*
X169528000Y-76527500D02*
X169528000Y-73827500D01*
X128550000Y-72492000D02*
X135090000Y-72492000D01*
X128550000Y-75232000D02*
X135090000Y-75232000D01*
X128550000Y-74902000D02*
X128550000Y-75232000D01*
X135090000Y-75232000D02*
X135090000Y-74902000D01*
X128550000Y-72822000D02*
X128550000Y-72492000D01*
X135090000Y-72492000D02*
X135090000Y-72822000D01*
X164618000Y-113894000D02*
X164618000Y-114224000D01*
X171158000Y-113894000D02*
X164618000Y-113894000D01*
X171158000Y-114224000D02*
X171158000Y-113894000D01*
X171158000Y-116634000D02*
X164618000Y-116634000D01*
X171158000Y-116304000D02*
X171158000Y-116634000D01*
X164618000Y-116634000D02*
X164618000Y-116304000D01*
X128550000Y-96822000D02*
X135090000Y-96822000D01*
X135090000Y-94082000D02*
X135090000Y-94412000D01*
X128550000Y-94082000D02*
X135090000Y-94082000D01*
X128550000Y-96492000D02*
X128550000Y-96822000D01*
X128550000Y-94412000D02*
X128550000Y-94082000D01*
X135090000Y-96822000D02*
X135090000Y-96492000D01*
X162708000Y-100500000D02*
X163038000Y-100500000D01*
X165448000Y-93960000D02*
X165448000Y-100500000D01*
X162708000Y-93960000D02*
X162708000Y-100500000D01*
X165118000Y-93960000D02*
X165448000Y-93960000D01*
X163038000Y-93960000D02*
X162708000Y-93960000D01*
X165448000Y-100500000D02*
X165118000Y-100500000D01*
X135090000Y-78280000D02*
X135090000Y-77950000D01*
X128550000Y-75540000D02*
X135090000Y-75540000D01*
X128550000Y-77950000D02*
X128550000Y-78280000D01*
X128550000Y-78280000D02*
X135090000Y-78280000D01*
X128550000Y-75870000D02*
X128550000Y-75540000D01*
X135090000Y-75540000D02*
X135090000Y-75870000D01*
X128550000Y-91364000D02*
X128550000Y-91034000D01*
X128550000Y-91034000D02*
X135090000Y-91034000D01*
X128550000Y-93774000D02*
X135090000Y-93774000D01*
X135090000Y-93774000D02*
X135090000Y-93444000D01*
X135090000Y-91034000D02*
X135090000Y-91364000D01*
X128550000Y-93444000D02*
X128550000Y-93774000D01*
X160100000Y-103380000D02*
X160100000Y-103780000D01*
X139100000Y-65380000D02*
X139100000Y-65680000D01*
X160100000Y-98280000D02*
X160100000Y-98680000D01*
X139100000Y-83080000D02*
X139100000Y-83480000D01*
X139100000Y-85580000D02*
X139100000Y-85980000D01*
X139100000Y-108480000D02*
X139100000Y-108880000D01*
X139100000Y-93180000D02*
X139100000Y-93580000D01*
X139100000Y-68047000D02*
X142107000Y-68047000D01*
X148100000Y-116380000D02*
X148500000Y-116380000D01*
X139100000Y-65380000D02*
X160100000Y-65380000D01*
X160100000Y-80480000D02*
X160100000Y-80880000D01*
X139100000Y-72880000D02*
X139100000Y-73280000D01*
X160100000Y-108480000D02*
X160100000Y-108880000D01*
X160100000Y-72880000D02*
X160100000Y-73280000D01*
X139100000Y-75480000D02*
X139100000Y-75880000D01*
X150700000Y-116380000D02*
X151100000Y-116380000D01*
X160100000Y-70380000D02*
X160100000Y-70780000D01*
X139100000Y-98280000D02*
X139100000Y-98680000D01*
X160100000Y-116380000D02*
X153300000Y-116380000D01*
X160100000Y-105980000D02*
X160100000Y-106380000D01*
X145900000Y-116380000D02*
X139100000Y-116380000D01*
X139100000Y-90680000D02*
X139100000Y-91080000D01*
X139100000Y-95780000D02*
X139100000Y-96180000D01*
X139100000Y-113580000D02*
X139100000Y-113980000D01*
X160100000Y-93180000D02*
X160100000Y-93580000D01*
X160100000Y-67780000D02*
X160100000Y-68180000D01*
X160100000Y-88180000D02*
X160100000Y-88580000D01*
X160100000Y-83080000D02*
X160100000Y-83480000D01*
X160100000Y-110980000D02*
X160100000Y-111380000D01*
X142107000Y-68047000D02*
X142107000Y-65380000D01*
X139100000Y-70380000D02*
X139100000Y-70780000D01*
X160100000Y-100880000D02*
X160100000Y-101280000D01*
X139100000Y-105980000D02*
X139100000Y-106380000D01*
X160100000Y-77980000D02*
X160100000Y-78380000D01*
X139100000Y-67780000D02*
X139100000Y-68180000D01*
X160100000Y-65380000D02*
X160100000Y-65680000D01*
X139100000Y-77980000D02*
X139100000Y-78380000D01*
X160100000Y-85580000D02*
X160100000Y-85980000D01*
X139100000Y-103380000D02*
X139100000Y-103780000D01*
X139100000Y-110980000D02*
X139100000Y-111380000D01*
X160100000Y-90680000D02*
X160100000Y-91080000D01*
X139100000Y-100880000D02*
X139100000Y-101280000D01*
X160100000Y-113580000D02*
X160100000Y-113980000D01*
X160100000Y-75480000D02*
X160100000Y-75880000D01*
X160100000Y-95780000D02*
X160100000Y-96180000D01*
X139100000Y-88180000D02*
X139100000Y-88580000D01*
X139100000Y-80480000D02*
X139100000Y-80880000D01*
X166086000Y-93960000D02*
X165756000Y-93960000D01*
X165756000Y-93960000D02*
X165756000Y-100500000D01*
X168496000Y-93960000D02*
X168496000Y-100500000D01*
X168496000Y-100500000D02*
X168166000Y-100500000D01*
X165756000Y-100500000D02*
X166086000Y-100500000D01*
X168166000Y-93960000D02*
X168496000Y-93960000D01*
X128550000Y-90726000D02*
X135090000Y-90726000D01*
X128550000Y-87986000D02*
X135090000Y-87986000D01*
X128550000Y-90396000D02*
X128550000Y-90726000D01*
X128550000Y-88316000D02*
X128550000Y-87986000D01*
X135090000Y-90726000D02*
X135090000Y-90396000D01*
X135090000Y-87986000D02*
X135090000Y-88316000D01*
M02*
